<svg width="651" height="426" viewBox="0 0 651 426" fill="none" xmlns="http://www.w3.org/2000/svg">
<path opacity="0.3" d="M31.8244 405.91C19.764 406.891 0.125999 408.696 0.000229388 411.297C-0.112065 413.642 15.6855 415.568 21.2149 416.248C84.4456 423.939 98.1904 411.032 181.868 416.603C225.752 419.524 341.999 424.551 380.921 425.77C434.171 427.44 487.883 419.42 526.539 420.73C541.722 421.243 648.082 424.78 649.978 419.38C650.319 418.403 647.732 415.69 601.759 409.029C601.759 409.051 382.169 377.351 31.8244 405.91Z" fill="url(#paint0_linear)"/>
<path d="M106.316 405.82H66.2807C65.6342 405.82 65.0103 405.581 64.5282 405.15C64.0461 404.718 63.7393 404.124 63.6665 403.48L57.3511 347.814H115.246L108.93 403.48C108.857 404.124 108.551 404.718 108.068 405.15C107.586 405.581 106.962 405.82 106.316 405.82Z" fill="#DC5F05"/>
<path d="M86.3007 351.77C102.287 351.77 115.246 350.295 115.246 348.476C115.246 346.657 102.287 345.182 86.3007 345.182C70.3148 345.182 57.3557 346.657 57.3557 348.476C57.3557 350.295 70.3148 351.77 86.3007 351.77Z" fill="#1C2B6B"/>
<path d="M83.6686 241.033C67.88 242.352 73.1398 289.827 73.1398 289.827C77.0881 330.695 82.3525 349.151 86.3007 350.47C90.249 351.788 98.1411 292.464 98.1411 277.963C98.1411 277.945 99.4571 239.714 83.6686 241.033Z" fill="#1E3286"/>
<path d="M85.6401 343.858H85.5592C85.4734 343.848 85.3905 343.822 85.3152 343.779C85.2399 343.737 85.1738 343.68 85.1207 343.611C85.0676 343.543 85.0286 343.465 85.006 343.381C84.9833 343.298 84.9775 343.211 84.9888 343.125C90.1813 300.177 83.7356 246.267 83.6727 245.722C83.6624 245.637 83.669 245.55 83.6922 245.467C83.7154 245.384 83.7547 245.306 83.8079 245.238C83.8611 245.17 83.9271 245.113 84.0021 245.071C84.0772 245.029 84.1599 245.002 84.2454 244.991C84.3309 244.981 84.4177 244.987 84.5006 245.011C84.5836 245.034 84.6612 245.073 84.729 245.127C84.7967 245.18 84.8534 245.246 84.8956 245.321C84.9379 245.396 84.965 245.479 84.9753 245.565C85.0427 246.105 91.5063 300.191 86.2914 343.278C86.2727 343.438 86.196 343.585 86.076 343.692C85.9559 343.799 85.8008 343.858 85.6401 343.858Z" fill="white"/>
<path d="M36.2987 218.621C34.9826 225.214 42.8792 226.533 44.1953 235.759C45.5114 244.984 41.5631 247.626 42.8792 252.923C44.1953 258.22 52.0873 259.512 53.4034 272.693C54.7195 285.875 49.4596 284.561 50.7712 292.468C52.0828 300.376 59.9839 300.38 61.2999 306.973C62.616 313.566 62.616 322.792 65.2482 330.699C67.8804 338.607 75.7724 350.474 79.7207 350.474C83.669 350.474 94.1932 328.062 91.561 321.473C88.9288 314.885 84.9851 313.539 84.9851 308.278C84.9851 303.017 90.2449 289.827 88.9288 280.596C87.6128 271.366 75.7724 267.414 74.4563 260.821C73.1403 254.228 77.0885 237.091 67.8804 229.183C58.6723 221.276 37.6148 212.032 36.2987 218.621Z" fill="#FFAC00"/>
<path d="M161.295 233.121C165.949 237.779 150.771 239.71 149.455 248.94C148.139 258.171 148.139 262.122 142.874 267.392C137.61 272.662 129.718 273.981 131.034 281.892C132.35 289.804 134.982 297.711 131.034 301.667C127.086 305.623 117.878 305.623 115.246 312.212C112.613 318.8 113.929 326.712 108.665 333.305C103.401 339.898 95.5087 353.089 88.9372 350.452C82.3657 347.814 86.3095 317.495 88.9372 312.198C91.5649 306.901 94.2015 302.972 94.2015 299.016C94.2015 295.06 92.8855 288.472 95.5176 281.879C98.1498 275.286 112.622 272.648 113.934 268.697C115.246 264.746 116.566 243.648 124.458 238.373C132.35 233.099 153.403 225.214 161.295 233.121Z" fill="#40CD8A"/>
<path d="M90.9721 348.192C90.8519 348.192 90.734 348.159 90.6307 348.098C90.4829 348.007 90.3765 347.862 90.3345 347.694C90.2925 347.526 90.3182 347.347 90.4061 347.198C90.46 347.108 95.7289 338.282 96.8428 333.818C97.1303 332.67 97.4762 330.929 97.8759 328.913C99.3313 321.595 101.528 310.533 104.91 307.144C109.82 302.225 117.667 287.162 123.165 267.882C129.938 244.129 152.33 237.181 152.554 237.113C152.721 237.063 152.901 237.081 153.054 237.164C153.208 237.247 153.322 237.387 153.372 237.554C153.422 237.721 153.404 237.901 153.321 238.055C153.238 238.209 153.098 238.323 152.932 238.373C152.716 238.441 131.003 245.2 124.431 268.243C118.87 287.738 110.871 303.04 105.84 308.08C102.741 311.185 100.504 322.441 99.1696 329.169C98.7653 331.203 98.4149 332.958 98.123 334.12C96.9596 338.773 91.7581 347.49 91.5335 347.859C91.4768 347.959 91.3952 348.042 91.2967 348.1C91.1983 348.159 91.0864 348.19 90.9721 348.192Z" fill="white"/>
<path d="M79.6436 345.303C79.4697 345.303 79.3029 345.234 79.1799 345.111C79.0569 344.987 78.9878 344.82 78.9878 344.646C78.9878 344.475 78.8755 327.346 73.8627 322.324C68.778 317.234 65.8808 301.649 64.4614 271.798C63.1723 244.674 43.7678 222.32 43.5702 222.104C43.4552 221.973 43.397 221.801 43.4084 221.627C43.4198 221.453 43.4998 221.29 43.6308 221.175C43.7618 221.06 43.9332 221.002 44.1071 221.013C44.2811 221.024 44.4434 221.104 44.5584 221.236C44.756 221.461 64.4659 244.138 65.773 271.735C67.1565 300.835 70.0222 316.613 74.7925 321.392C80.1826 326.793 80.2994 343.917 80.3039 344.646C80.3039 344.82 80.2348 344.987 80.1118 345.111C79.9888 345.234 79.822 345.303 79.6481 345.303H79.6436Z" fill="white"/>
<path d="M526.832 46.9978H440.194C438.21 46.9978 436.601 48.6097 436.601 50.5981V117.029C436.601 119.017 438.21 120.629 440.194 120.629H526.832C528.816 120.629 530.425 119.017 530.425 117.029V50.5981C530.425 48.6097 528.816 46.9978 526.832 46.9978Z" fill="#F0F2F5"/>
<path d="M471.268 52.0923H443.073V56.2597H471.268V52.0923Z" fill="#D3D6DB"/>
<path d="M522.65 61.3541H445.768C444.28 61.3541 443.073 62.5631 443.073 64.0544V100.332C443.073 101.823 444.28 103.032 445.768 103.032H522.65C524.138 103.032 525.345 101.823 525.345 100.332V64.0544C525.345 62.5631 524.138 61.3541 522.65 61.3541Z" fill="white"/>
<path d="M509.965 79.4323H468.366V81.2864H509.965V79.4323Z" fill="#D3D6DB"/>
<path d="M509.965 85.4538H468.366V87.308H509.965V85.4538Z" fill="#D3D6DB"/>
<path d="M496.099 91.4709H468.366V93.325H496.099V91.4709Z" fill="#D3D6DB"/>
<path d="M455.093 64.1354H455.089C451.006 64.1354 447.695 67.4519 447.695 71.543V71.5475C447.695 75.6387 451.006 78.9552 455.089 78.9552H455.093C459.177 78.9552 462.487 75.6387 462.487 71.5475V71.543C462.487 67.4519 459.177 64.1354 455.093 64.1354Z" fill="#D3D6DB"/>
<path d="M488.476 74.3378H471.371C470.574 74.3378 469.81 74.0206 469.246 73.456C468.683 72.8913 468.366 72.1255 468.366 71.327C468.368 70.5293 468.685 69.7646 469.248 69.201C469.811 68.6373 470.575 68.3207 471.371 68.3207H488.476C489.272 68.3207 490.035 68.6375 490.598 69.2013C491.16 69.765 491.476 70.5297 491.476 71.327C491.477 71.7222 491.4 72.1136 491.249 72.4789C491.099 72.8441 490.878 73.1761 490.599 73.4557C490.321 73.7353 489.99 73.9572 489.625 74.1085C489.261 74.2599 488.87 74.3378 488.476 74.3378Z" fill="#4EF26D"/>
<path d="M429.207 33.5911H428.614V34.7837H429.207V33.5911Z" fill="url(#paint1_linear)"/>
<path d="M429.212 84.5402H428.614V82.0515H429.212V84.5402ZM429.212 79.5628H428.614V77.0785H429.212V79.5628ZM429.212 74.6123H428.614V72.1236H429.212V74.6123ZM429.212 69.6349H428.614V67.1461H429.212V69.6349ZM429.212 64.6619H428.614V62.1507H429.212V64.6619ZM429.212 59.6845H428.614V57.1552H429.212V59.6845ZM429.212 54.707H428.614V52.2048H429.212V54.707ZM429.212 49.734H428.614V47.2453H429.212V49.734ZM429.212 44.7566H428.614V42.2454H429.212V44.7566ZM429.212 39.7836H428.614V37.2724H429.212V39.7836Z" fill="url(#paint2_linear)"/>
<path d="M429.207 87.029H428.614V88.2216H429.207V87.029Z" fill="url(#paint3_linear)"/>
<path d="M477.292 38.5595H476.101V39.1536H477.292V38.5595Z" fill="url(#paint4_linear)"/>
<path d="M473.792 39.1536H471.484V38.5595H473.792V39.1536ZM469.175 39.1536H466.871V38.5595H469.175V39.1536ZM464.562 39.1536H462.253V38.5595H464.562V39.1536ZM459.958 39.1536H457.653V38.5595H459.958V39.1536ZM455.345 39.1536H453.036V38.5595H455.345V39.1536ZM450.727 39.1536H448.418V38.5595H450.727V39.1536ZM446.114 39.1536H443.787V38.5595H446.096L446.114 39.1536ZM441.496 39.1536H439.188V38.5595H441.496V39.1536ZM436.879 39.1536H434.575V38.5595H436.879V39.1536ZM432.266 39.1536H429.957V38.5595H432.266V39.1536ZM427.617 39.1536H425.313V38.5595H427.617V39.1536ZM423.004 39.1536H420.695V38.5595H423.004V39.1536Z" fill="url(#paint5_linear)"/>
<path d="M418.404 38.5595H417.214V39.1536H418.404V38.5595Z" fill="url(#paint6_linear)"/>
<path d="M135.777 28.6046H60.1225C58.1379 28.6046 56.5291 30.2165 56.5291 32.2049V90.0172C56.5291 92.0056 58.1379 93.6176 60.1225 93.6176H135.777C137.762 93.6176 139.371 92.0056 139.371 90.0172V32.2049C139.371 30.2165 137.762 28.6046 135.777 28.6046Z" fill="#F0F2F5"/>
<path d="M87.1357 33.1005H62.2423V36.7819H87.1357V33.1005Z" fill="#D3D6DB"/>
<path d="M132.188 41.2823H64.9374C63.4489 41.2823 62.2423 42.4912 62.2423 43.9825V75.3819C62.2423 76.8732 63.4489 78.0821 64.9374 78.0821H132.188C133.677 78.0821 134.883 76.8732 134.883 75.3819V43.9825C134.883 42.4912 133.677 41.2823 132.188 41.2823Z" fill="white"/>
<path d="M126.808 57.2407H71.5186V58.8744H126.808V57.2407Z" fill="#D3D6DB"/>
<path d="M126.808 62.5557H71.5186V64.1894H126.808V62.5557Z" fill="#D3D6DB"/>
<path d="M108.378 67.8707H71.5186V69.5044H108.378V67.8707Z" fill="#D3D6DB"/>
<path d="M99.5876 52.7448H74.1732C73.4695 52.7436 72.795 52.463 72.2974 51.9645C71.7998 51.4659 71.5197 50.7901 71.5186 50.0851C71.5197 49.3805 71.8 48.7051 72.2977 48.2073C72.7954 47.7094 73.4699 47.4298 74.1732 47.4298H99.5876C100.291 47.4298 100.965 47.7096 101.462 48.2075C101.959 48.7055 102.238 49.3809 102.238 50.0851C102.238 50.7897 101.959 51.4655 101.462 51.9642C100.965 52.4629 100.291 52.7436 99.5876 52.7448Z" fill="#32A753"/>
<path d="M152.707 111.678H151.881V113.334H152.707V111.678Z" fill="url(#paint7_linear)"/>
<path d="M151.881 42.5424H152.721V45.9987H151.894L151.881 42.5424ZM151.881 49.455H152.721V52.9113H151.894L151.881 49.455ZM151.881 56.3677H152.721V59.8285H151.894L151.881 56.3677ZM151.881 63.2848H152.721V66.7411H151.894L151.881 63.2848ZM151.881 70.1974H152.721V73.6537H151.894L151.881 70.1974ZM151.881 77.1101H152.721V80.5574H151.894L151.881 77.1101ZM151.881 84.0227H152.721V87.4835H151.894L151.881 84.0227ZM151.881 90.9398H152.721V94.3961H151.894L151.881 90.9398ZM151.881 97.8524H152.721V101.309H151.894L151.881 97.8524ZM151.881 104.765H152.721V108.221H151.894L151.881 104.765Z" fill="url(#paint8_linear)"/>
<path d="M152.707 37.4299H151.881V39.0861H152.707V37.4299Z" fill="url(#paint9_linear)"/>
<path d="M86.7278 105.607H85.0748V106.435H86.7278V105.607Z" fill="url(#paint10_linear)"/>
<path d="M89.9348 105.607H93.1419V106.435H89.9348V105.607ZM96.3491 105.607H99.5562V106.435H96.3491V105.607ZM102.759 105.607H105.966V106.435H102.759V105.607ZM109.173 105.607H112.38V106.435H109.173V105.607ZM115.587 105.607H118.794V106.435H115.587V105.607ZM122.002 105.607H125.209V106.435H122.002V105.607ZM128.416 105.607H131.61V106.435H128.402L128.416 105.607ZM134.83 105.607H138.037V106.435H134.83V105.607ZM141.244 105.607H144.447V106.435H141.244V105.607ZM147.654 105.607H150.861V106.435H147.654V105.607ZM154.068 105.607H157.276V106.435H154.068V105.607ZM160.483 105.607H163.69V106.435H160.483V105.607Z" fill="url(#paint11_linear)"/>
<path d="M168.549 105.607H166.896V106.435H168.549V105.607Z" fill="url(#paint12_linear)"/>
<path d="M546.488 144.805L462.617 155.264L481.11 179.76C449.353 200.661 415.659 218.445 380.494 232.865C348.799 245.872 316.071 256.194 282.654 263.724C237.13 273.967 199.857 276.564 186.494 276.492H186.409C183.371 276.483 180.454 277.683 178.3 279.829C176.146 281.975 174.93 284.89 174.921 287.934C174.912 290.978 176.111 293.9 178.252 296.059C180.394 298.217 183.304 299.435 186.342 299.444H186.643C190.717 299.444 229.674 299.093 286.903 286.289C321.673 278.501 355.729 267.799 388.71 254.296C425.873 239.093 461.458 220.274 494.954 198.108L513.608 222.815L546.488 144.805Z" fill="#40CD8A"/>
<path d="M353.148 318.935H307.512V405.82H353.148V318.935Z" fill="#2B96DC"/>
<path d="M424.055 289.151H378.419V405.82H424.055V289.151Z" fill="#2B96DC"/>
<path d="M494.958 267.576H449.321V405.82H494.958V267.576Z" fill="#2B96DC"/>
<path d="M565.865 231.42H520.228V405.82H565.865V231.42Z" fill="#2B96DC"/>
<path d="M282.245 327.549H236.609V405.82H282.245V327.549Z" fill="#2B96DC"/>
<path d="M211.338 349.7H165.702V405.82H211.338V349.7Z" fill="#2B96DC"/>
<path d="M253.947 283.764C253.947 283.764 252.218 289.376 247.632 291.523C243.046 293.67 251.706 309.687 260.658 314.385C269.61 319.084 272.476 315.812 272.476 315.812C272.476 315.812 268.806 294.993 269.215 292.441L253.947 283.764Z" fill="white"/>
<path d="M268.945 317.585C266.973 317.585 264.184 316.987 260.357 314.984C256.912 313.184 253.202 309.583 250.174 305.083C247.308 300.826 245.633 296.667 245.682 293.958C245.727 292.068 246.608 291.258 247.34 290.92C251.589 288.931 253.278 283.629 253.296 283.575C253.322 283.475 253.372 283.382 253.441 283.304C253.509 283.226 253.595 283.165 253.691 283.125C253.784 283.087 253.885 283.071 253.986 283.078C254.086 283.085 254.184 283.115 254.271 283.166L269.543 291.838C269.662 291.907 269.757 292.011 269.817 292.135C269.876 292.26 269.896 292.4 269.875 292.536C269.588 294.336 271.672 307.356 273.132 315.681C273.149 315.781 273.145 315.883 273.117 315.981C273.09 316.078 273.041 316.168 272.974 316.244C272.916 316.347 271.78 317.585 268.945 317.585ZM254.307 284.732C253.637 286.415 251.715 290.344 247.919 292.122C247.708 292.216 247.07 292.518 247.021 293.962C246.967 296.37 248.597 300.33 251.275 304.313C254.176 308.625 257.711 312.077 260.963 313.764C267.903 317.396 270.931 316.059 271.744 315.519C271.173 312.27 268.451 296.501 268.514 292.797L254.307 284.732Z" fill="#510394"/>
<path d="M249.128 290.641C248.072 286.213 239.991 292.851 239.484 294.993C238.976 297.135 238.873 297.747 238.873 297.747L237.242 298.377C237.242 298.377 245.197 313.485 246.365 313.584C247.533 313.683 249.568 312.36 249.568 312.36C249.568 312.36 259.45 327.567 269.228 327.567H282.165C282.165 327.567 286.037 325.834 285.933 320.816C285.83 315.798 275.849 320.614 274.219 313.265C272.588 305.916 273.32 303.265 268.829 303.467C264.337 303.67 261.089 303.67 261.597 305.609C262.104 307.549 267.71 314.894 267.71 314.894C267.71 314.894 262.819 309.687 259.863 308.143C256.907 306.6 251.127 299.043 249.128 290.641Z" fill="#510394"/>
<path d="M320.713 289.016L316.051 301.834L342.166 312.185C342.166 312.185 336.928 299.547 340.324 291.483L320.713 289.016Z" fill="white"/>
<path d="M342.143 312.873C342.059 312.874 341.975 312.858 341.896 312.828L315.781 302.477C315.617 302.413 315.486 302.287 315.413 302.126C315.341 301.966 315.334 301.783 315.395 301.618L320.057 288.8C320.107 288.654 320.205 288.529 320.336 288.447C320.467 288.365 320.623 288.331 320.776 288.35L340.387 290.808C340.49 290.822 340.588 290.86 340.674 290.917C340.76 290.975 340.833 291.051 340.886 291.141C340.936 291.231 340.966 291.332 340.972 291.436C340.979 291.539 340.961 291.643 340.921 291.739C337.678 299.466 342.718 311.816 342.768 311.942C342.811 312.044 342.828 312.156 342.817 312.267C342.807 312.378 342.769 312.484 342.707 312.576C342.645 312.669 342.561 312.744 342.462 312.796C342.364 312.848 342.254 312.874 342.143 312.873ZM316.886 301.451L340.975 311.01C339.749 307.549 337.09 298.674 339.367 292.041L321.162 289.755L316.886 301.451Z" fill="#510394"/>
<path d="M278.805 138.577C278.805 138.577 334.377 177.879 345.373 206.465C356.368 235.052 341.51 294.898 341.51 294.898L317.923 292.815C317.923 292.815 325.461 243.684 322.788 238.621C320.115 233.558 287.923 205.556 278.836 199.427C268.352 192.357 246.41 187.726 247.897 116.543L278.805 138.577Z" fill="#510394"/>
<path d="M299.574 210.799C302.454 241.299 272.008 294.899 272.008 294.899L249.86 286.505C249.86 286.505 264.08 241.672 274.358 212.023C279.034 198.549 263.128 174.625 273.733 176.596C279.932 177.766 296.695 180.3 299.574 210.799Z" fill="#510394"/>
<path d="M291.476 47.7944C283.467 45.1346 275.894 43.6945 272 47.7944C268.105 51.8942 249.99 70.625 241.613 88.7751C233.236 106.925 230.9 119.999 232.85 122.146C234.799 124.292 245.898 139.319 252.133 140.291C258.367 141.263 297.122 157.064 304.332 158.441C311.541 159.819 318.746 154.931 317.573 138.928C316.401 122.924 320.497 91.7004 314.847 75.6969C309.196 59.6935 303.712 51.8537 291.476 47.7944Z" fill="#4CBCF3"/>
<path d="M300.617 38.1365C300.617 38.1365 300.819 50.9176 301.416 53.5099C302.014 56.1021 296.633 57.9068 288.66 55.4091C280.687 52.9113 276.981 47.1193 277.197 46.0212C277.412 44.9231 286.665 37.4344 287.662 34.9412C288.66 32.448 300.617 38.1365 300.617 38.1365Z" fill="white"/>
<path d="M295.68 57.2812C293.225 57.2367 290.79 56.8226 288.457 56.0526C280.624 53.5999 276.217 47.6549 276.536 45.9042C276.653 45.2606 277.646 44.2841 280.691 41.4308C283.153 39.1266 286.531 35.9628 287.038 34.6802C287.119 34.4805 287.24 34.2999 287.395 34.1503C287.55 34.0007 287.734 33.8853 287.936 33.8116C288.386 33.6271 291.256 32.9115 300.891 37.5154C301.003 37.5702 301.099 37.6551 301.166 37.7607C301.233 37.8664 301.27 37.9886 301.273 38.114C301.273 38.2445 301.479 50.8547 302.054 53.3524C302.149 53.7821 302.126 54.2297 301.985 54.6469C301.845 55.0641 301.594 55.435 301.259 55.7196C300.284 56.6467 298.353 57.2812 295.68 57.2812ZM277.861 46.1697C277.938 46.9843 281.113 52.3398 288.862 54.7655C294.49 56.5297 298.91 56.0841 300.361 54.7385C300.522 54.6157 300.646 54.4493 300.716 54.2589C300.787 54.0684 300.803 53.8617 300.76 53.6629C300.208 51.2687 299.992 40.8412 299.952 38.5685C296.192 36.8134 290.07 34.4417 288.444 35.0762C288.314 35.1257 288.296 35.1752 288.287 35.1887C287.712 36.6334 285.143 39.0951 281.612 42.4164C280.067 43.8655 278.153 45.6612 277.861 46.1697Z" fill="#510394"/>
<path d="M289.324 36.0483C285.578 41.2238 284.217 42.2949 279.73 40.3417C275.243 38.3885 272.992 30.1888 269.592 27.061C266.192 23.9332 271.029 5.57601 280.988 4.30689C290.946 3.03778 300.98 -4.28889 307.04 3.62283C313.099 11.5346 295.81 26.4759 293.488 27.5515C291.166 28.6271 289.324 36.0483 289.324 36.0483Z" fill="#510394"/>
<path d="M303.195 10.657C303.195 10.657 312.273 20.8729 311.015 22.412C309.758 23.9512 308.644 24.6623 308.5 26.1924C308.356 27.7225 308.922 40.1842 303.195 40.8862C297.468 41.5883 287.24 37.5784 286.733 36.4128C286.37 35.3533 286.149 34.25 286.077 33.132C286.077 33.132 280.759 31.5254 280.979 28.8251C281.199 26.1249 283.382 24.3247 284.545 25.1078C285.709 25.8909 285.201 27.5875 286.149 27.5875C287.097 27.5875 285.929 24.3787 286.733 23.7937C287.537 23.2086 297.446 23.7217 303.195 10.657Z" fill="white"/>
<path d="M301.816 41.6378C295.865 41.6378 286.764 38.141 286.126 36.6874C285.769 35.7047 285.543 34.6785 285.457 33.6361C284.047 33.1455 280.098 31.5254 280.323 28.7756C280.498 26.5974 281.787 25.0268 282.915 24.4912C283.227 24.3189 283.58 24.2339 283.936 24.245C284.293 24.256 284.64 24.3629 284.941 24.5542C285.322 24.8175 285.622 25.1822 285.807 25.6073C285.731 24.6533 285.718 23.7127 286.346 23.2536C286.753 23.0375 287.199 22.9087 287.658 22.8756C290.461 22.3715 297.899 21.0259 302.593 10.3869C302.639 10.2838 302.71 10.1939 302.799 10.1252C302.888 10.0566 302.994 10.0115 303.105 9.994C303.216 9.97654 303.33 9.9873 303.436 10.0253C303.542 10.0633 303.637 10.1273 303.712 10.2114C303.734 10.2384 306.02 12.8172 308.123 15.5489C312.125 20.7514 312.134 22.1285 311.55 22.8441C311.204 23.2941 310.863 23.6362 310.562 23.9602C309.785 24.8018 309.268 25.3553 309.187 26.2554C309.187 26.4219 309.165 26.7729 309.156 27.2185C309.084 30.9538 308.9 40.8727 303.289 41.5613C302.8 41.6152 302.308 41.6407 301.816 41.6378ZM287.348 36.1113C288.121 37.0519 297.643 40.8817 303.128 40.2157C307.575 39.6711 307.75 30.2743 307.808 27.187C307.808 26.6964 307.808 26.3409 307.844 26.1294C307.965 24.7793 308.711 23.9692 309.573 23.0376C309.865 22.7226 310.166 22.3985 310.472 22.0205C310.629 20.9719 307.063 16.1205 303.384 11.8811C298.384 22.3085 290.807 23.6767 287.892 24.1987C287.618 24.2482 287.312 24.3067 287.155 24.3472C287.095 24.8239 287.095 25.3062 287.155 25.7829C287.231 26.6829 287.299 27.4795 286.872 27.9476C286.779 28.048 286.667 28.1279 286.541 28.1821C286.416 28.2364 286.281 28.2638 286.144 28.2626C285.152 28.2626 284.914 27.3625 284.774 26.8225C284.725 26.3723 284.512 25.956 284.177 25.6523C284.068 25.6032 283.949 25.5816 283.83 25.5894C283.711 25.5973 283.596 25.6343 283.494 25.6973C282.681 26.0844 281.792 27.2995 281.666 28.8701C281.522 30.6253 285.039 32.0969 286.284 32.4705C286.414 32.5097 286.53 32.588 286.615 32.695C286.7 32.802 286.751 32.9325 286.76 33.069C286.83 34.1036 287.027 35.1255 287.348 36.1113Z" fill="#510394"/>
<path d="M299.745 217.064C299.578 217.063 299.418 216.999 299.296 216.884C299.148 216.749 284.473 203.252 273.59 197.037C273.434 196.948 273.32 196.801 273.273 196.628C273.226 196.455 273.249 196.27 273.338 196.114C273.427 195.959 273.574 195.845 273.746 195.797C273.919 195.75 274.103 195.774 274.259 195.862C285.277 202.163 300.06 215.754 300.208 215.894C300.307 215.985 300.376 216.105 300.406 216.236C300.437 216.368 300.427 216.505 300.379 216.631C300.33 216.757 300.245 216.866 300.135 216.943C300.024 217.02 299.893 217.062 299.759 217.064H299.745Z" fill="white"/>
<path d="M260.258 131.894C258.154 131.832 256.055 131.66 253.969 131.376C253.792 131.356 253.63 131.266 253.519 131.125C253.407 130.985 253.356 130.807 253.377 130.629C253.398 130.451 253.489 130.288 253.629 130.177C253.77 130.066 253.949 130.015 254.127 130.035C257.779 130.485 260.069 130.62 261.111 130.507C262.544 128.469 270.544 106.016 274.43 89.5132C278.297 73.1542 276.577 65.742 276.559 65.661C276.523 65.4901 276.556 65.3122 276.648 65.1645C276.741 65.0169 276.887 64.911 277.057 64.8691C277.226 64.8272 277.404 64.8525 277.555 64.9397C277.706 65.0269 277.817 65.1693 277.866 65.337C277.942 65.6475 279.698 73.0822 275.741 89.8237C273.235 100.44 269.354 112.254 267.804 116.826C262.814 131.574 261.938 131.723 261.516 131.795C261.1 131.86 260.679 131.893 260.258 131.894Z" fill="#510394"/>
<path d="M317.618 298.674C317.618 298.674 314.923 296.834 313.355 298.562C311.788 300.29 306.748 310.816 307.853 312.644C308.958 314.471 308.85 318.449 311.541 318.521L327.046 318.935L327.123 315.983C327.123 315.983 346.999 320.879 353.503 318.098C360.007 315.317 360.725 311.699 356.952 308.985C353.179 306.271 350.385 305.168 347.762 302.531C345.139 299.894 343.491 298.085 340.261 299.52C337.031 300.956 335.711 302.594 336.95 304.021C338.19 305.447 341.824 308.931 341.824 308.931C341.824 308.931 331.655 305.569 327.994 303.413C324.333 301.258 317.618 298.674 317.618 298.674Z" fill="#510394"/>
<path d="M245.116 215.615C244.754 215.615 244.394 215.553 244.052 215.43L207.745 202.379C206.961 202.096 206.321 201.513 205.965 200.758C205.61 200.003 205.568 199.137 205.849 198.351L208.446 191.101C209.857 187.178 212.763 183.977 216.527 182.198C220.291 180.418 224.605 180.207 228.524 181.61L241.209 186.16C245.125 187.574 248.321 190.486 250.097 194.258C251.873 198.03 252.083 202.354 250.682 206.281L248.086 213.527C247.867 214.139 247.464 214.669 246.932 215.043C246.4 215.417 245.766 215.617 245.116 215.615ZM212.83 197.51L243.216 208.437L244.753 204.152C245.59 201.798 245.463 199.208 244.399 196.947C243.335 194.687 241.421 192.941 239.075 192.091L226.386 187.532C224.036 186.693 221.45 186.821 219.194 187.888C216.937 188.955 215.195 190.874 214.348 193.225L212.83 197.51Z" fill="#AB3000"/>
<path d="M270.045 209.946L191.01 181.53C188.568 180.652 185.877 181.924 185.001 184.371L167.738 232.572C166.861 235.019 168.131 237.715 170.573 238.593L249.608 267.008C252.05 267.886 254.741 266.614 255.617 264.167L272.88 215.966C273.757 213.519 272.487 210.824 270.045 209.946Z" fill="#AB3000"/>
<path d="M272.253 210.742L188.796 180.737C186.353 179.859 183.663 181.131 182.787 183.578L175.743 203.245C174.866 205.693 176.136 208.388 178.578 209.266L262.035 239.271C264.478 240.15 267.168 238.878 268.044 236.431L275.088 216.763C275.965 214.316 274.695 211.621 272.253 210.742Z" fill="#AE4300"/>
<path d="M224.589 215.869L222.348 215.064C220.095 214.253 217.613 215.427 216.804 217.684L214.474 224.191C213.665 226.448 214.836 228.935 217.09 229.745L219.33 230.551C221.584 231.361 224.066 230.188 224.874 227.93L227.205 221.424C228.013 219.166 226.842 216.679 224.589 215.869Z" fill="#FFAC00"/>
<path d="M234.161 123.721C234.161 123.721 228.555 166.025 226.381 170.386C224.207 174.746 216.122 182.69 217.676 187.514C219.23 192.339 222.213 192.681 222.213 192.681L224.315 192.357L228.277 194.544L230.073 193.329L235.324 194.949L239.915 193.068L234.179 190.718C234.179 190.718 233.28 184.967 236.425 184.418C239.569 183.869 244.025 187.901 244.025 187.901C243.507 184.03 242.474 180.246 240.952 176.65C238.527 171.142 254.01 130.71 254.01 130.71C254.01 130.71 247.721 130.291 242.628 128.401C239.606 127.236 236.757 125.661 234.161 123.721Z" fill="white"/>
<path d="M235.306 195.624C235.239 195.624 235.173 195.613 235.109 195.592L230.168 194.067L228.654 195.102C228.551 195.172 228.43 195.212 228.306 195.218C228.181 195.223 228.058 195.194 227.949 195.133L224.189 193.068L222.316 193.356C222.257 193.362 222.196 193.362 222.137 193.356C221.997 193.356 218.705 192.906 217.034 187.726C215.853 184.062 219.432 179.175 222.59 174.854C223.768 173.347 224.832 171.754 225.775 170.089C227.459 166.718 231.56 138.23 233.492 123.635C233.506 123.517 233.552 123.404 233.624 123.309C233.696 123.214 233.792 123.14 233.902 123.094C234.012 123.049 234.132 123.033 234.25 123.049C234.369 123.065 234.48 123.112 234.574 123.185C237.122 125.078 239.915 126.616 242.875 127.758C247.816 129.594 254.006 130.008 254.069 130.03C254.174 130.037 254.276 130.067 254.368 130.121C254.459 130.174 254.537 130.248 254.594 130.336C254.649 130.427 254.684 130.528 254.694 130.633C254.704 130.739 254.69 130.845 254.652 130.944C248.472 147.091 239.888 172.514 241.581 176.367C243.142 180.024 244.2 183.877 244.726 187.82C244.741 187.957 244.715 188.095 244.65 188.216C244.585 188.337 244.485 188.435 244.363 188.498C244.241 188.561 244.103 188.584 243.967 188.566C243.831 188.548 243.704 188.489 243.603 188.396C242.435 187.334 238.891 184.665 236.578 185.079C234.529 185.448 234.705 189.076 234.817 190.259L240.207 192.456C240.331 192.506 240.438 192.593 240.513 192.704C240.587 192.816 240.627 192.947 240.627 193.081C240.627 193.216 240.587 193.347 240.513 193.458C240.438 193.57 240.331 193.656 240.207 193.707L235.603 195.57C235.509 195.609 235.408 195.628 235.306 195.624ZM230.056 192.654C230.123 192.653 230.189 192.664 230.253 192.685L235.279 194.233L238.123 193.081L233.923 191.362C233.815 191.318 233.72 191.247 233.648 191.156C233.575 191.064 233.528 190.955 233.51 190.84C233.469 190.579 232.566 184.431 236.322 183.756C238.639 183.338 241.46 185.061 243.109 186.281C242.55 183.064 241.625 179.921 240.351 176.916C238.006 171.592 250.48 138.149 253.076 131.304C251.135 131.115 246.442 130.53 242.408 129.027C239.675 127.98 237.08 126.605 234.678 124.931C233.752 131.817 229.009 166.628 226.983 170.687C226.287 172.082 225.016 173.837 223.677 175.638C220.856 179.49 217.348 184.287 218.319 187.294C219.581 191.227 221.773 191.889 222.222 191.983L224.212 191.677C224.366 191.65 224.524 191.677 224.661 191.754L228.254 193.738L229.692 192.757C229.801 192.689 229.927 192.653 230.056 192.654Z" fill="#510394"/>
<path d="M224.315 193.032C224.212 193.032 224.11 193.008 224.018 192.963C223.925 192.918 223.844 192.852 223.781 192.771L219.738 187.55C219.655 187.441 219.607 187.31 219.6 187.174C219.593 187.037 219.627 186.902 219.697 186.785L221.606 183.635C221.649 183.552 221.707 183.48 221.779 183.421C221.85 183.362 221.933 183.319 222.022 183.294C222.111 183.269 222.204 183.262 222.296 183.274C222.388 183.287 222.476 183.318 222.555 183.366C222.634 183.414 222.702 183.478 222.756 183.553C222.809 183.629 222.846 183.715 222.865 183.805C222.884 183.896 222.884 183.989 222.866 184.08C222.847 184.171 222.81 184.257 222.756 184.332L221.09 187.082L224.832 191.934C224.939 192.076 224.987 192.256 224.964 192.433C224.942 192.611 224.85 192.772 224.71 192.883C224.598 192.974 224.459 193.026 224.315 193.032Z" fill="#510394"/>
<path d="M228.277 195.219C228.16 195.219 228.045 195.189 227.944 195.131C227.842 195.074 227.757 194.991 227.697 194.89L223.735 188.243C223.67 188.137 223.636 188.015 223.636 187.89C223.636 187.765 223.67 187.643 223.735 187.537L225.842 184.175C225.937 184.023 226.089 183.916 226.263 183.876C226.438 183.836 226.621 183.868 226.772 183.963C226.923 184.059 227.03 184.211 227.07 184.385C227.11 184.56 227.078 184.743 226.983 184.895L225.096 187.906L228.847 194.206C228.938 194.36 228.964 194.544 228.92 194.718C228.877 194.892 228.766 195.041 228.613 195.133C228.51 195.19 228.394 195.22 228.277 195.219Z" fill="#510394"/>
<path d="M230.056 194.004C229.933 194.004 229.812 193.971 229.707 193.907C229.602 193.844 229.516 193.753 229.458 193.644L227.244 189.467C227.185 189.365 227.155 189.25 227.155 189.132C227.155 189.014 227.185 188.899 227.244 188.797L229.813 184.616C229.859 184.54 229.92 184.474 229.992 184.422C230.063 184.37 230.145 184.333 230.231 184.312C230.317 184.291 230.406 184.288 230.494 184.302C230.581 184.316 230.665 184.347 230.741 184.393C230.816 184.44 230.882 184.5 230.934 184.572C230.986 184.644 231.023 184.725 231.044 184.812C231.065 184.898 231.068 184.987 231.054 185.075C231.04 185.163 231.009 185.247 230.963 185.322L228.632 189.17L230.667 193.014C230.748 193.17 230.764 193.353 230.712 193.521C230.66 193.689 230.543 193.831 230.388 193.914C230.287 193.973 230.172 194.004 230.056 194.004Z" fill="#510394"/>
<defs>
<linearGradient id="paint0_linear" x1="650" y1="409.992" x2="91.6998" y2="409.992" gradientUnits="userSpaceOnUse">
<stop stop-color="#D3D6DB"/>
<stop offset="1" stop-color="#7A869B"/>
</linearGradient>
<linearGradient id="paint1_linear" x1="428.915" y1="90.2021" x2="428.915" y2="49.9097" gradientUnits="userSpaceOnUse">
<stop stop-color="#4E9CFF"/>
<stop offset="1" stop-color="#176AD4"/>
</linearGradient>
<linearGradient id="paint2_linear" x1="999.135" y1="9511.16" x2="999.135" y2="5279.27" gradientUnits="userSpaceOnUse">
<stop stop-color="#4E9CFF"/>
<stop offset="1" stop-color="#176AD4"/>
</linearGradient>
<linearGradient id="paint3_linear" x1="994.793" y1="326.064" x2="994.793" y2="219.29" gradientUnits="userSpaceOnUse">
<stop stop-color="#4E9CFF"/>
<stop offset="1" stop-color="#176AD4"/>
</linearGradient>
<linearGradient id="paint4_linear" x1="1575.81" y1="89.8499" x2="1616.61" y2="89.8499" gradientUnits="userSpaceOnUse">
<stop stop-color="#4E9CFF"/>
<stop offset="1" stop-color="#176AD4"/>
</linearGradient>
<linearGradient id="paint5_linear" x1="49474.1" y1="89.8499" x2="51293.8" y2="89.8499" gradientUnits="userSpaceOnUse">
<stop stop-color="#4E9CFF"/>
<stop offset="1" stop-color="#176AD4"/>
</linearGradient>
<linearGradient id="paint6_linear" x1="1516.87" y1="89.8499" x2="1557.66" y2="89.8499" gradientUnits="userSpaceOnUse">
<stop stop-color="#4E9CFF"/>
<stop offset="1" stop-color="#176AD4"/>
</linearGradient>
<linearGradient id="paint7_linear" x1="-774.21" y1="-1309.88" x2="-774.21" y2="-1103.83" gradientUnits="userSpaceOnUse">
<stop stop-color="#4E9CFF"/>
<stop offset="1" stop-color="#176AD4"/>
</linearGradient>
<linearGradient id="paint8_linear" x1="-801.891" y1="-66683" x2="-801.891" y2="-58511.8" gradientUnits="userSpaceOnUse">
<stop stop-color="#4E9CFF"/>
<stop offset="1" stop-color="#176AD4"/>
</linearGradient>
<linearGradient id="paint9_linear" x1="-774.21" y1="-1235.61" x2="-774.21" y2="-1029.57" gradientUnits="userSpaceOnUse">
<stop stop-color="#4E9CFF"/>
<stop offset="1" stop-color="#176AD4"/>
</linearGradient>
<linearGradient id="paint10_linear" x1="-2332.93" y1="-326.074" x2="-2411.64" y2="-326.074" gradientUnits="userSpaceOnUse">
<stop stop-color="#4E9CFF"/>
<stop offset="1" stop-color="#176AD4"/>
</linearGradient>
<linearGradient id="paint11_linear" x1="-147256" y1="-326.074" x2="-150768" y2="-326.074" gradientUnits="userSpaceOnUse">
<stop stop-color="#4E9CFF"/>
<stop offset="1" stop-color="#176AD4"/>
</linearGradient>
<linearGradient id="paint12_linear" x1="-2414.74" y1="-326.074" x2="-2493.45" y2="-326.074" gradientUnits="userSpaceOnUse">
<stop stop-color="#4E9CFF"/>
<stop offset="1" stop-color="#176AD4"/>
</linearGradient>
</defs>
</svg>
